{"title":"Kung Fu Panda 2008 DVDrip Dutch Klam","uid":6747658,"size":1576340466,"categoryP":"video","categoryS":"movies","magnet":"?xt=urn:btih:e69ca4a8b6aaf49bd22bceaf2f6a6ecade6cb807&amp;dn=Kung+Fu+Panda+2008+DVDrip+Dutch+Klam&amp;tr=udp%3A%2F%2Ftracker.openbittorrent.com%3A80&amp;tr=udp%3A%2F%2Fopen.demonii.com%3A1337&amp;tr=udp%3A%2F%2Ftracker.coppersurfer.tk%3A6969&amp;tr=udp%3A%2F%2Fexodus.desync.com%3A6969","seeders":1,"leechers":1,"uploader":"Klambake","files":-1,"time":1318764716,"description":"Dutch Spoken, Nederlands gesproken\ngeregisseerd door Mark Osborne en John Stevenson\nPo is een luie panda die de Uitverkorene blijkt te zijn om de vallei te redden van het gemene luipaard Tai Lung. Hij moet daarom in de leer bij Kung Fu master Shifu. Po zet de wereld van de Kung Fu compleet op zijn kop! Hij wordt een held door te leren dat als hij in zichzelf gelooft, hij alles kan bereiken.\n\n------------------ Dutch Friends ------------------\nYou can find my Friends at: http://www.Film-Test.nl \n------ They got my dutch subs ----- and more ------\n\nGeneral:\n\nComplete name                    : Kung Fu Panda\\Kung Fu Panda.avi\nFormat                           : AVI\nFormat/Info                      : Audio Video Interleave\nFile size                        : 1.47 GiB\nDuration                         : 1h 28mn\nOverall bit rate                 : 2 382 Kbps\n\nVideo:\n\nFormat                           : MPEG-4 Visual\nFormat profile                   : Simple@L3\nFormat settings, BVOP            : No\nFormat settings, QPel            : No\nFormat settings, GMC             : No warppoints\nFormat settings, Matrix          : Default (H.263)\nCodec ID                         : XVID\nCodec ID/Hint                    : XviD\nDuration                         : 1h 28mn\nBit rate                         : 1 987 Kbps\nWidth                            : 720 pixels\nHeight                           : 500 pixels\nDisplay aspect ratio             : 1.440\nFrame rate                       : 25.000 fps\nColor space                      : YUV\nChroma subsampling               : 4:2:0\nBit depth                        : 8 bits\nScan type                        : Progressive\nCompression mode                 : Lossy\nBits/(Pixel*Frame)               : 0.221\nStream size                      : 1.22 GiB (83%)\nWriting library                  : XviD 1.1.2 (UTC 2006-11-01)\n\nAudio:\n\nFormat                           : AC-3\nFormat/Info                      : Audio Coding 3\nMode extension                   : CM (complete main)\nCodec ID                         : 2000\nDuration                         : 1h 28mn\nBit rate mode                    : Constant\nBit rate                         : 384 Kbps\nChannel(s)                       : 6 channels\nChannel positions                : Front: L C R, Side: L R, LFE\nSampling rate                    : 48.0 KHz\nBit depth                        : 16 bits\nCompression mode                 : Lossy\nStream size                      : 242 MiB (16%)\nAlignment                        : Aligned on interleaves\nInterleave, duration             : 32 ms (0.80 video frame)\nInterleave, preload duration     : 1216 ms\n\n\n\n\n\n","torrent":{"xt":"urn:btih:e69ca4a8b6aaf49bd22bceaf2f6a6ecade6cb807","amp;dn":"Kung+Fu+Panda+2008+DVDrip+Dutch+Klam","amp;tr":["udp%3A%2F%2Ftracker.openbittorrent.com%3A80","udp%3A%2F%2Fopen.demonii.com%3A1337","udp%3A%2F%2Ftracker.coppersurfer.tk%3A6969","udp%3A%2F%2Fexodus.desync.com%3A6969"],"infoHash":"e69ca4a8b6aaf49bd22bceaf2f6a6ecade6cb807","infoHashBuffer":{"type":"Buffer","data":[230,156,164,168,182,170,244,155,210,43,206,175,47,106,110,202,222,108,184,7]},"announce":[],"urlList":[]}}